<svg xmlns="http://www.w3.org/2000/svg" version="1.1" xmlns:xlink="http://www.w3.org/1999/xlink" width="512" height="512" x="0" y="0" viewBox="0 0 58 58" style="enable-background:new 0 0 512 512" xml:space="preserve" class=""><g><g fill="none"><path fill="#603e26" d="m25.001 27.832 2.828-2.828 7.084 7.084-2.828 2.828z" opacity="1" data-original="#603e26"></path><path fill="#a56a43" d="M6 48h14a3 3 0 0 1 3 3v4H3v-4a3 3 0 0 1 3-3z" opacity="1" data-original="#a56a43" class=""></path><g fill="#805333"><path d="m32.79 24.3-8.49 8.49a2 2 0 0 1-2.83 0l-1.41-1.42 4-7.5 7.31-3.81 1.42 1.41a2 2 0 0 1 0 2.83zM15.11 37.74l-1.42 1.41a1 1 0 0 1-1.41 0L1 27.84a1 1 0 0 1 0-1.42L2.38 25a3 3 0 0 1 4.24 0l5.25 3.24 3.24 5.24a3 3 0 0 1 0 4.26zM37.74 15.11l1.41-1.42a1 1 0 0 0 0-1.41L27.84 1a1 1 0 0 0-1.42 0L25 2.38a3 3 0 0 0 0 4.24l2.65 5.16 5.83 3.33a3 3 0 0 0 4.26 0zM2 53h22a2 2 0 0 1 2 2v2a1 1 0 0 1-1 1H1a1 1 0 0 1-1-1v-2a2 2 0 0 1 2-2z" fill="#805333" opacity="1" data-original="#805333"></path></g><path fill="#f3d55b" d="M23 44a1 1 0 0 1-1-1v-4a1 1 0 0 1 2 0v4a1 1 0 0 1-1 1zM31 48h-4a1 1 0 0 1 0-2h4a1 1 0 0 1 0 2zM26 45a1 1 0 0 1-.71-1.71l3-3a1.004 1.004 0 0 1 1.42 1.42l-3 3A1 1 0 0 1 26 45z" opacity="1" data-original="#f3d55b"></path><path fill="#a56a43" d="M33.49 17.94 17.94 33.49a2 2 0 0 1-2.83 0l-6.36-6.36 5.82-9.33L17.4 15l9.73-6.22 6.36 6.36a2 2 0 0 1 0 2.8z" opacity="1" data-original="#a56a43" class=""></path><path fill="#cb8252" d="M27.13 8.75 14.4 21.47l-2.83 2.83-2.82 2.83L6.62 25a2 2 0 0 1 0-2.83L22.18 6.62a2 2 0 0 1 2.83 0z" opacity="1" data-original="#cb8252"></path><path fill="#805333" d="m56.83 51.17-2.12-2.12-2.83-2.83-13.44-13.43L35.62 30a2 2 0 0 0-2.83 0L30 32.79a2 2 0 0 0 0 2.83l2.83 2.83 13.39 13.43 2.83 2.83 2.12 2.12a4.002 4.002 0 0 0 5.66-5.66z" opacity="1" data-original="#805333"></path><path fill="#f3d55b" d="m38.44 32.79-5.65 5.65L30 35.62a2 2 0 0 1 0-2.83L32.79 30a2 2 0 0 1 2.83 0z" opacity="1" data-original="#f3d55b"></path><path fill="#bdc3c7" d="m46.202 51.875 5.656-5.656 2.828 2.828-5.656 5.656z" opacity="1" data-original="#bdc3c7"></path><path fill="#603e26" d="M56.83 56.83a4 4 0 0 1-5.66 0l-2.12-2.12 5.66-5.66 2.12 2.12a4 4 0 0 1 0 5.66z" opacity="1" data-original="#603e26"></path></g></g></svg>